<svg xmlns="http://www.w3.org/2000/svg" viewBox="0 0 24 24" fill="none" stroke="currentColor" stroke-width="1.6" stroke-linecap="round" stroke-linejoin="round">
  <!-- Chip body -->
  <rect x="7" y="7" width="10" height="10" rx="1.5"/>
  <!-- Pin rows left/right -->
  <line x1="4" y1="9" x2="7" y2="9"/>
  <line x1="4" y1="12" x2="7" y2="12"/>
  <line x1="4" y1="15" x2="7" y2="15"/>
  <line x1="17" y1="9" x2="20" y2="9"/>
  <line x1="17" y1="12" x2="20" y2="12"/>
  <line x1="17" y1="15" x2="20" y2="15"/>
  <!-- Pin rows top/bottom -->
  <line x1="9" y1="4" x2="9" y2="7"/>
  <line x1="12" y1="4" x2="12" y2="7"/>
  <line x1="15" y1="4" x2="15" y2="7"/>
  <line x1="9" y1="17" x2="9" y2="20"/>
  <line x1="12" y1="17" x2="12" y2="20"/>
  <line x1="15" y1="17" x2="15" y2="20"/>
  <!-- AI spark in center -->
  <polyline points="10.5,13.5 12,10.5 13.5,13.5" stroke-width="1.4"/>
  <line x1="11" y1="12.5" x2="13" y2="12.5" stroke-width="1.4"/>
</svg>
